<svg xmlns="http://www.w3.org/2000/svg" viewBox="0 0 800 200" width="800" height="200">
  <rect width="800" height="200" fill="#fff"/>
  <line x1="0" y1="100" x2="800" y2="100" stroke="#fcc" stroke-width="0.5"/>
  <polyline fill="none" stroke="#222" stroke-width="1.5"
    points="0,100 25,100 30,90 35,100 50,100 55,50 60,150 65,100 90,100
            115,100 120,90 125,100 140,100 145,50 150,150 155,100 180,100
            205,100 210,90 215,100 230,100 235,50 240,150 245,100 270,100
            295,100 300,90 305,100 320,100 325,50 330,150 335,100 360,100
            385,100 390,90 395,100 410,100 415,50 420,150 425,100 450,100
            475,100 480,90 485,100 500,100 505,50 510,150 515,100 540,100
            565,100 570,90 575,100 590,100 595,50 600,150 605,100 630,100
            655,100 660,90 665,100 680,100 685,50 690,150 695,100 720,100
            745,100 750,90 755,100 770,100 775,50 780,150 785,100 800,100"/>
  <text x="400" y="190" text-anchor="middle" fill="#999" font-size="12">MMVT Placeholder 2</text>
</svg>
