<svg xmlns="http://www.w3.org/2000/svg" viewBox="0 0 800 200" width="800" height="200">
  <rect width="800" height="200" fill="#fff"/>
  <line x1="0" y1="100" x2="800" y2="100" stroke="#fcc" stroke-width="0.5"/>
  <polyline fill="none" stroke="#222" stroke-width="1.5"
    points="0,100 20,100 25,80 32,120 35,100 55,100 60,45 65,155 70,100 95,100
            115,100 120,80 127,120 130,100 150,100 155,45 160,155 165,100 190,100
            210,100 215,80 222,120 225,100 245,100 250,45 255,155 260,100 285,100
            305,100 310,80 317,120 320,100 340,100 345,45 350,155 355,100 380,100
            400,100 405,80 412,120 415,100 435,100 440,45 445,155 450,100 475,100
            495,100 500,80 507,120 510,100 530,100 535,45 540,155 545,100 570,100
            590,100 595,80 602,120 605,100 625,100 630,45 635,155 640,100 665,100
            685,100 690,80 697,120 700,100 720,100 725,45 730,155 735,100 760,100
            780,100 785,80 792,120 795,100 800,100"/>
  <text x="400" y="190" text-anchor="middle" fill="#999" font-size="12">MMVT Placeholder 3</text>
</svg>
