<svg xmlns="http://www.w3.org/2000/svg" viewBox="0 0 800 200" width="800" height="200">
  <rect width="800" height="200" fill="#fff"/>
  <line x1="0" y1="100" x2="800" y2="100" stroke="#fcc" stroke-width="0.5"/>
  <polyline fill="none" stroke="#222" stroke-width="1.5"
    points="0,100 30,100 35,95 40,100 60,100 65,60 68,140 72,100 100,100
            130,100 135,95 140,100 160,100 165,60 168,140 172,100 200,100
            230,100 235,95 240,100 260,100 265,60 268,140 272,100 300,100
            330,100 335,95 340,100 360,100 365,60 368,140 372,100 400,100
            430,100 435,95 440,100 460,100 465,60 468,140 472,100 500,100
            530,100 535,95 540,100 560,100 565,60 568,140 572,100 600,100
            630,100 635,95 640,100 660,100 665,60 668,140 672,100 700,100
            730,100 735,95 740,100 760,100 765,60 768,140 772,100 800,100"/>
  <text x="400" y="190" text-anchor="middle" fill="#999" font-size="12">MMVT Placeholder 1</text>
</svg>
