<svg xmlns="http://www.w3.org/2000/svg" viewBox="0 0 800 200" width="800" height="200">
  <rect width="800" height="200" fill="#fff"/>
  <line x1="0" y1="100" x2="800" y2="100" stroke="#fcc" stroke-width="0.5"/>
  <polyline fill="none" stroke="#222" stroke-width="1.5"
    points="0,100 10,100 15,90 20,100 35,100 40,80 48,120 52,75 58,125 62,100
            80,100 86,60 92,140 98,50 104,150 110,55 116,145 122,100
            145,100 152,40 158,160 164,35 170,165 176,45 182,155 188,100
            210,100 218,30 224,170 230,25 236,175 242,30 248,170 254,100
            275,100 282,45 288,155 294,50 300,150 306,55 312,145 318,100
            340,100 346,65 352,135 358,70 364,130 370,75 376,125 382,100
            400,100 408,80 414,120 420,85 426,115 432,90 438,110 444,100
            465,100 472,85 478,115 484,90 490,110 496,95 502,105 508,100
            530,100 536,90 542,110 548,92 554,108 560,95 566,105 572,100
            595,100 600,95 605,105 610,97 615,103 620,98 625,102 630,100
            660,100 700,100 740,100 780,100 800,100"/>
  <text x="400" y="190" text-anchor="middle" fill="#999" font-size="12">PMVT Placeholder 3 (Torsades pattern)</text>
</svg>
