<svg xmlns="http://www.w3.org/2000/svg" viewBox="0 0 800 200" width="800" height="200">
  <rect width="800" height="200" fill="#fff"/>
  <line x1="0" y1="100" x2="800" y2="100" stroke="#fcc" stroke-width="0.5"/>
  <polyline fill="none" stroke="#222" stroke-width="1.5"
    points="0,100 15,100 20,90 25,110 30,100 50,100 55,80 62,120 68,85 74,115 80,100
            100,100 108,70 114,130 120,60 126,140 132,100 155,100 162,50 168,150 174,45 180,155 186,100
            210,100 216,65 222,135 228,55 234,145 240,100 260,100 268,75 274,125 280,80 286,120 292,100
            315,100 322,45 328,155 334,40 340,160 346,100 370,100 376,70 382,130 388,65 394,135 400,100
            420,100 428,55 434,145 440,60 446,140 452,100 475,100 482,80 488,120 494,85 500,115 506,100
            530,100 536,50 542,150 548,55 554,145 560,100 585,100 592,75 598,125 604,70 610,130 616,100
            640,100 648,60 654,140 660,45 666,155 672,100 700,100 706,85 712,115 718,90 724,110 730,100
            755,100 762,70 768,130 774,75 780,125 786,100 800,100"/>
  <text x="400" y="190" text-anchor="middle" fill="#999" font-size="12">PMVT Placeholder 2</text>
</svg>
