<svg xmlns="http://www.w3.org/2000/svg" viewBox="0 0 800 200" width="800" height="200">
  <rect width="800" height="200" fill="#fff"/>
  <line x1="0" y1="100" x2="800" y2="100" stroke="#fcc" stroke-width="0.5"/>
  <polyline fill="none" stroke="#222" stroke-width="1.5"
    points="0,100 20,100 25,85 30,100 45,100 50,70 55,130 60,100 80,100
            95,100 100,75 108,125 112,100 130,100 135,40 142,160 148,100 170,100
            185,100 192,60 198,140 204,100 225,100 232,30 238,170 244,100 265,100
            280,100 286,55 292,145 298,100 315,100 322,35 328,165 334,100 355,100
            370,100 376,65 382,135 388,100 405,100 412,45 418,155 424,100 445,100
            460,100 466,70 472,130 478,100 498,100 504,50 510,150 516,100 538,100
            555,100 560,80 566,120 572,100 590,100 596,60 602,140 608,100 630,100
            648,100 654,40 660,160 666,100 690,100 696,75 702,125 708,100 730,100
            748,100 754,55 760,145 766,100 800,100"/>
  <text x="400" y="190" text-anchor="middle" fill="#999" font-size="12">PMVT Placeholder 1</text>
</svg>
